<svg width="14" height="14" viewBox="0 0 14 14" fill="none" xmlns="http://www.w3.org/2000/svg">
<path d="M6.41675 9.91666H7.58342V6.41666H6.41675V9.91666ZM7.00008 5.24999C7.16536 5.24999 7.304 5.19399 7.416 5.08199C7.528 4.96999 7.5838 4.83155 7.58342 4.66666C7.58303 4.50177 7.52703 4.36332 7.41541 4.25132C7.3038 4.13932 7.16536 4.08332 7.00008 4.08332C6.8348 4.08332 6.69636 4.13932 6.58475 4.25132C6.47314 4.36332 6.41714 4.50177 6.41675 4.66666C6.41636 4.83155 6.47236 4.97018 6.58475 5.08257C6.69714 5.19496 6.83558 5.25077 7.00008 5.24999ZM7.00008 12.8333C6.19314 12.8333 5.4348 12.6801 4.72508 12.3737C4.01536 12.0672 3.398 11.6517 2.873 11.1271C2.348 10.6025 1.93247 9.9851 1.62642 9.27499C1.32036 8.56488 1.16714 7.80655 1.16675 6.99999C1.16636 6.19343 1.31958 5.4351 1.62642 4.72499C1.93325 4.01488 2.34878 3.39752 2.873 2.87291C3.39722 2.3483 4.01458 1.93277 4.72508 1.62632C5.43558 1.31988 6.19391 1.16666 7.00008 1.16666C7.80625 1.16666 8.56458 1.31988 9.27508 1.62632C9.98558 1.93277 10.6029 2.3483 11.1272 2.87291C11.6514 3.39752 12.0671 4.01488 12.3743 4.72499C12.6816 5.4351 12.8346 6.19343 12.8334 6.99999C12.8322 7.80655 12.679 8.56488 12.3737 9.27499C12.0685 9.9851 11.6529 10.6025 11.1272 11.1271C10.6014 11.6517 9.98403 12.0674 9.27508 12.3742C8.56614 12.6811 7.8078 12.8341 7.00008 12.8333Z" fill="white"/>
</svg>
