<svg width="20" height="20" viewBox="0 0 20 20" fill="none" xmlns="http://www.w3.org/2000/svg">
    <g clip-path="url(#hh35cursja)">
        <path d="M10 20c5.523 0 10-4.477 10-10S15.523 0 10 0 0 4.477 0 10s4.477 10 10 10z" fill="#F0F0F0"/>
        <path d="M2.067 3.912a9.964 9.964 0 0 0-1.722 3.48h5.202l-3.48-3.48zM19.656 7.391a9.964 9.964 0 0 0-1.723-3.48l-3.48 3.48h5.203zM.345 12.609a9.964 9.964 0 0 0 1.722 3.48l3.48-3.48H.345zM16.088 2.067a9.964 9.964 0 0 0-3.48-1.723v5.203l3.48-3.48zM3.912 17.933a9.964 9.964 0 0 0 3.48 1.723v-5.203l-3.48 3.48zM7.392.344a9.964 9.964 0 0 0-3.48 1.723l3.48 3.48V.344zM12.609 19.655a9.964 9.964 0 0 0 3.48-1.722l-3.48-3.48v5.203zM14.454 12.609l3.48 3.48a9.965 9.965 0 0 0 1.722-3.48h-5.202z" fill="#0052B4"/>
        <path d="M19.915 8.696h-8.61V.085a10.1 10.1 0 0 0-2.61 0v8.61H.086a10.1 10.1 0 0 0 0 2.61h8.61v8.61a10.114 10.114 0 0 0 2.61 0v-8.61h8.61a10.115 10.115 0 0 0 0-2.61z" fill="#D80027"/>
        <path d="m12.609 12.609 4.462 4.462c.205-.205.401-.42.588-.642l-3.82-3.82h-1.23zM7.391 12.609 2.929 17.07c.205.205.42.401.642.588l3.82-3.82v-1.23zM7.391 7.391 2.93 2.93c-.205.205-.4.42-.588.642l3.82 3.82h1.23zM12.609 7.391 17.07 2.93c-.205-.205-.42-.401-.642-.588l-3.82 3.82v1.23z" fill="#D80027"/>
    </g>
    <defs>
        <clipPath id="hh35cursja">
            <path fill="#fff" d="M0 0h20v20H0z"/>
        </clipPath>
    </defs>
</svg>
