<svg width="32" height="32" viewBox="0 0 32 32" fill="none" xmlns="http://www.w3.org/2000/svg">
<rect width="32" height="32" rx="16" fill="#F2542D"/>
<path d="M25.999 20.19C25.999 23.83 23.829 26 20.189 26H18.999C18.449 26 17.999 25.55 17.999 25V19.23C17.999 18.96 18.219 18.73 18.489 18.73L20.249 18.7C20.389 18.69 20.509 18.59 20.539 18.45L20.889 16.54C20.919 16.36 20.779 16.19 20.589 16.19L18.459 16.22C18.179 16.22 17.959 16 17.949 15.73L17.909 13.28C17.909 13.12 18.039 12.98 18.209 12.98L20.609 12.94C20.779 12.94 20.909 12.81 20.909 12.64L20.869 10.24C20.869 10.07 20.739 9.94 20.569 9.94L17.869 9.98001C16.209 10.01 14.889 11.37 14.919 13.03L14.969 15.78C14.979 16.06 14.759 16.28 14.479 16.29L13.279 16.31C13.109 16.31 12.979 16.44 12.979 16.61L13.009 18.51C13.009 18.68 13.139 18.81 13.309 18.81L14.509 18.79C14.789 18.79 15.009 19.01 15.019 19.28L15.109 24.98C15.119 25.54 14.669 26 14.109 26H11.809C8.16902 26 5.99902 23.83 5.99902 20.18V11.81C5.99902 8.17 8.16902 6 11.809 6H20.189C23.829 6 25.999 8.17 25.999 11.81V20.19Z" fill="white"/>
</svg>
