<svg width="34" height="34" viewBox="0 0 34 34" fill="none" xmlns="http://www.w3.org/2000/svg">
<path d="M17.0017 32.2434C15.4575 32.2434 13.9275 31.79 12.7234 30.8975L6.63169 26.35C5.01669 25.1459 3.75586 22.6242 3.75586 20.6267V10.0867C3.75586 7.90504 5.35669 5.58171 7.41086 4.81671L14.48 2.16754C15.8825 1.64337 18.0925 1.64337 19.495 2.16754L26.5642 4.81671C28.6184 5.58171 30.2192 7.90504 30.2192 10.0867V20.6125C30.2192 22.6242 28.9584 25.1317 27.3434 26.3359L21.2517 30.8834C20.0759 31.79 18.5459 32.2434 17.0017 32.2434ZM15.2309 4.16504L8.16169 6.81421C6.95753 7.26754 5.89503 8.79754 5.89503 10.1009V20.6267C5.89503 21.9725 6.84419 23.8567 7.90669 24.65L13.9984 29.1975C15.6275 30.4159 18.3759 30.4159 20.0192 29.1975L26.1109 24.65C27.1875 23.8425 28.1225 21.9725 28.1225 20.6267V10.0867C28.1225 8.79754 27.06 7.26754 25.8559 6.80004L18.7867 4.15087C17.8234 3.81087 16.18 3.81087 15.2309 4.16504Z" fill="white"/>
<path d="M15.1015 20.1594C14.8323 20.1594 14.5632 20.0602 14.3507 19.8477L12.0698 17.5669C11.659 17.1561 11.659 16.4761 12.0698 16.0652C12.4807 15.6544 13.1607 15.6544 13.5715 16.0652L15.1015 17.5952L20.4423 12.2544C20.8532 11.8436 21.5332 11.8436 21.944 12.2544C22.3548 12.6652 22.3548 13.3452 21.944 13.7561L15.8523 19.8477C15.6398 20.0602 15.3707 20.1594 15.1015 20.1594Z" fill="white"/>
</svg>
