<svg width="52" height="62" viewBox="0 0 52 62" fill="none" xmlns="http://www.w3.org/2000/svg">
<g filter="url(#filter0_d_1417_545)">
<path d="M26 8C21.758 8.00496 17.6911 9.74496 14.6916 12.8383C11.6921 15.9316 10.0048 20.1256 10 24.5002C10 30.3877 14.1357 36.5938 18.4545 42.5472C20.7004 45.2221 22.4099 47.6307 25.1727 49.7285C25.4173 49.9052 25.7087 50 26.0073 50C26.3059 50 26.5973 49.9052 26.8418 49.7285C29.5995 47.6298 31.3041 45.2212 33.5455 42.5472C37.8629 36.5938 42 30.3877 42 24.5002C41.9952 20.1256 40.3079 15.9316 37.3084 12.8383C34.3089 9.74496 30.242 8.00496 26 8Z" fill="#F2542D"/>
<path d="M15.0506 13.1863C17.9576 10.1884 21.8957 8.50496 26 8.5C30.1043 8.50496 34.0424 10.1884 36.9494 13.1863C39.8571 16.1849 41.4953 20.2537 41.5 24.5007C41.4999 27.3308 40.5042 30.2713 38.948 33.2686C37.3952 36.2596 35.3052 39.2686 33.151 42.2395C32.7033 42.7738 32.2797 43.2937 31.8672 43.8C30.1936 45.8538 28.7041 47.6818 26.5445 49.3265C26.3851 49.4402 26.1978 49.5 26.0073 49.5C25.8167 49.5 25.6293 49.4402 25.4699 49.3264C23.3037 47.6804 21.8091 45.85 20.1294 43.7928C19.7179 43.2888 19.2953 42.7712 18.8489 42.2393C16.694 39.2685 14.6041 36.2595 13.0515 33.2686C11.4955 30.2712 10.5001 27.3306 10.5 24.5004C10.5047 20.2535 12.1429 16.1849 15.0506 13.1863Z" stroke="white" stroke-opacity="0.4"/>
<rect x="14" y="12" width="24" height="24" rx="12" fill="white"/>
<path d="M28.2498 21C28.5959 21 28.9343 20.8974 29.222 20.7051C29.5098 20.5128 29.7341 20.2395 29.8666 19.9197C29.999 19.5999 30.0337 19.2481 29.9662 18.9086C29.8986 18.5691 29.732 18.2573 29.4872 18.0126C29.2425 17.7678 28.9307 17.6012 28.5912 17.5336C28.2517 17.4661 27.8999 17.5008 27.5801 17.6332C27.2603 17.7657 26.987 17.99 26.7947 18.2778C26.6024 18.5655 26.4998 18.9039 26.4998 19.25C26.4998 19.7141 26.6842 20.1592 27.0124 20.4874C27.3406 20.8156 27.7857 21 28.2498 21ZM28.2498 18.5C28.3981 18.5 28.5431 18.544 28.6665 18.6264C28.7898 18.7088 28.8859 18.8259 28.9427 18.963C28.9995 19.1 29.0143 19.2508 28.9854 19.3963C28.9564 19.5418 28.885 19.6754 28.7801 19.7803C28.6752 19.8852 28.5416 19.9567 28.3961 19.9856C28.2506 20.0145 28.0998 19.9997 27.9628 19.9429C27.8257 19.8861 27.7086 19.79 27.6262 19.6667C27.5438 19.5433 27.4998 19.3983 27.4998 19.25C27.4998 19.0511 27.5788 18.8603 27.7195 18.7197C27.8601 18.579 28.0509 18.5 28.2498 18.5ZM33.9298 28.245L30.5198 22.49C30.4319 22.3401 30.3061 22.2159 30.155 22.1299C30.004 22.0439 29.833 21.9991 29.6592 22C29.4854 21.9991 29.3145 22.0439 29.1636 22.1299C29.0126 22.2159 28.887 22.3401 28.7992 22.49L27.1642 25.25L24.3617 20.4938C24.2734 20.3437 24.1474 20.2192 23.9962 20.1328C23.8451 20.0463 23.6739 20.0009 23.4998 20.0009C23.3257 20.0009 23.1545 20.0463 23.0034 20.1328C22.8522 20.2192 22.7262 20.3437 22.6379 20.4938L18.0692 28.2463C18.0245 28.3222 18.0006 28.4086 18 28.4967C17.9994 28.5848 18.0221 28.6715 18.0659 28.748C18.1096 28.8245 18.1727 28.8881 18.2489 28.9324C18.3251 28.9766 18.4117 29 18.4998 29H33.4998C33.5881 29 33.6747 28.9766 33.751 28.9323C33.8273 28.8879 33.8905 28.8241 33.9342 28.7475C33.9779 28.6708 34.0005 28.5839 33.9997 28.4956C33.9989 28.4074 33.9748 28.3209 33.9298 28.245ZM23.4998 21L24.9729 23.5H22.0267L23.4998 21ZM19.3748 28L21.4373 24.5H25.5623L26.7335 26.4875L27.6248 28H19.3748ZM28.7854 28L27.7442 26.2325L29.6592 23L32.6248 28H28.7854Z" fill="#562C2C"/>
</g>
<defs>
<filter id="filter0_d_1417_545" x="-8" y="-8" width="68" height="77" filterUnits="userSpaceOnUse" color-interpolation-filters="sRGB">
<feFlood flood-opacity="0" result="BackgroundImageFix"/>
<feColorMatrix in="SourceAlpha" type="matrix" values="0 0 0 0 0 0 0 0 0 0 0 0 0 0 0 0 0 0 127 0" result="hardAlpha"/>
<feOffset dy="2"/>
<feGaussianBlur stdDeviation="5"/>
<feComposite in2="hardAlpha" operator="out"/>
<feColorMatrix type="matrix" values="0 0 0 0 1 0 0 0 0 1 0 0 0 0 1 0 0 0 0.3 0"/>
<feBlend mode="normal" in2="BackgroundImageFix" result="effect1_dropShadow_1417_545"/>
<feBlend mode="normal" in="SourceGraphic" in2="effect1_dropShadow_1417_545" result="shape"/>
</filter>
</defs>
</svg>
