<svg width="28" height="28" viewBox="0 0 28 28" fill="none" xmlns="http://www.w3.org/2000/svg">
<path d="M9.1026 2.33301H18.9026C22.6359 2.33301 25.6693 5.36634 25.6693 9.09967V18.8997C25.6693 20.6943 24.9564 22.4154 23.6874 23.6844C22.4184 24.9534 20.6972 25.6663 18.9026 25.6663H9.1026C5.36927 25.6663 2.33594 22.633 2.33594 18.8997V9.09967C2.33594 7.30504 3.04885 5.58391 4.31785 4.31492C5.58684 3.04592 7.30797 2.33301 9.1026 2.33301ZM8.86927 4.66634C7.75536 4.66634 6.68708 5.10884 5.89942 5.89649C5.11177 6.68415 4.66927 7.75243 4.66927 8.86634V19.133C4.66927 21.4547 6.5476 23.333 8.86927 23.333H19.1359C20.2498 23.333 21.3181 22.8905 22.1058 22.1029C22.8934 21.3152 23.3359 20.2469 23.3359 19.133V8.86634C23.3359 6.54467 21.4576 4.66634 19.1359 4.66634H8.86927ZM20.1276 6.41634C20.5144 6.41634 20.8853 6.56999 21.1588 6.84348C21.4323 7.11697 21.5859 7.4879 21.5859 7.87467C21.5859 8.26145 21.4323 8.63238 21.1588 8.90587C20.8853 9.17936 20.5144 9.33301 20.1276 9.33301C19.7408 9.33301 19.3699 9.17936 19.0964 8.90587C18.8229 8.63238 18.6693 8.26145 18.6693 7.87467C18.6693 7.4879 18.8229 7.11697 19.0964 6.84348C19.3699 6.56999 19.7408 6.41634 20.1276 6.41634ZM14.0026 8.16634C15.5497 8.16634 17.0334 8.78092 18.1274 9.87488C19.2214 10.9688 19.8359 12.4526 19.8359 13.9997C19.8359 15.5468 19.2214 17.0305 18.1274 18.1245C17.0334 19.2184 15.5497 19.833 14.0026 19.833C12.4555 19.833 10.9718 19.2184 9.87781 18.1245C8.78385 17.0305 8.16927 15.5468 8.16927 13.9997C8.16927 12.4526 8.78385 10.9688 9.87781 9.87488C10.9718 8.78092 12.4555 8.16634 14.0026 8.16634ZM14.0026 10.4997C13.0743 10.4997 12.1841 10.8684 11.5277 11.5248C10.8714 12.1812 10.5026 13.0714 10.5026 13.9997C10.5026 14.9279 10.8714 15.8182 11.5277 16.4745C12.1841 17.1309 13.0743 17.4997 14.0026 17.4997C14.9309 17.4997 15.8211 17.1309 16.4775 16.4745C17.1339 15.8182 17.5026 14.9279 17.5026 13.9997C17.5026 13.0714 17.1339 12.1812 16.4775 11.5248C15.8211 10.8684 14.9309 10.4997 14.0026 10.4997Z" fill="white"/>
</svg>
