<svg width="18" height="18" viewBox="0 0 18 18" fill="none" xmlns="http://www.w3.org/2000/svg">
<path d="M9.75307 14.3032C9.75307 14.5029 9.67373 14.6945 9.5325 14.8357C9.39127 14.9769 9.19973 15.0563 9 15.0563C8.80027 15.0563 8.60873 14.9769 8.4675 14.8357C8.32627 14.6945 8.24693 14.5029 8.24693 14.3032L8.25223 9.74766L3.6967 9.75296C3.49697 9.75296 3.30543 9.67362 3.1642 9.53239C3.02297 9.39116 2.94363 9.19962 2.94363 8.99989C2.94363 8.80017 3.02297 8.60862 3.1642 8.46739C3.30543 8.32616 3.49697 8.24682 3.6967 8.24682L8.25223 8.25213L8.24693 3.69659C8.24693 3.49687 8.32627 3.30532 8.4675 3.16409C8.60873 3.02286 8.80027 2.94352 9 2.94352C9.19973 2.94352 9.39127 3.02286 9.5325 3.16409C9.67373 3.30532 9.75307 3.49687 9.75307 3.69659L9.74777 8.25213L14.3033 8.24682C14.503 8.24682 14.6946 8.32616 14.8358 8.46739C14.977 8.60862 15.0564 8.80017 15.0564 8.99989C15.0564 9.19962 14.977 9.39116 14.8358 9.53239C14.6946 9.67362 14.503 9.75296 14.3033 9.75296L9.74777 9.74766L9.75307 14.3032Z" fill="#7DB9FF"/>
</svg>
