<svg width="25" height="24" viewBox="0 0 25 24" fill="none" xmlns="http://www.w3.org/2000/svg">
<g id="Frame 1597882024">
<rect x="0.5" width="24" height="24" rx="8" fill="#1977F3"/>
<path id="Vector" d="M14.1611 15.9944L10.0729 13.8823C9.68044 14.2513 9.18146 14.502 8.63885 14.6027C8.09623 14.7035 7.53427 14.6498 7.02381 14.4485C6.51335 14.2472 6.07724 13.9072 5.77047 13.4714C5.46369 13.0356 5.29999 12.5236 5.29999 11.9998C5.29999 11.476 5.46369 10.964 5.77047 10.5282C6.07724 10.0924 6.51335 9.75246 7.02381 9.55113C7.53427 9.34979 8.09623 9.29612 8.63885 9.39688C9.18146 9.49764 9.68044 9.74832 10.0729 10.1173L14.1611 8.00519C14.0209 7.38204 14.1222 6.73191 14.4464 6.17367C14.7707 5.61543 15.2962 5.18641 15.9269 4.96504C16.5577 4.74367 17.2514 4.74476 17.8814 4.96811C18.5113 5.19146 19.0354 5.62214 19.3576 6.18139C19.6799 6.74064 19.7789 7.39109 19.6365 8.0138C19.4941 8.6365 19.1198 9.18985 18.5821 9.57265C18.0444 9.95545 17.3792 10.1421 16.7082 10.0985C16.0371 10.0549 15.4051 9.78397 14.9276 9.33522L10.8393 11.4473C10.9208 11.8114 10.9208 12.1875 10.8393 12.5515L14.9276 14.6644C15.4051 14.2156 16.0371 13.9447 16.7082 13.9011C17.3792 13.8575 18.0444 14.0442 18.5821 14.427C19.1198 14.8098 19.4941 15.3631 19.6365 15.9858C19.7789 16.6085 19.6799 17.259 19.3576 17.8182C19.0354 18.3775 18.5113 18.8082 17.8814 19.0315C17.2514 19.2548 16.5577 19.2559 15.9269 19.0346C15.2962 18.8132 14.7707 18.3842 14.4464 17.8259C14.1222 17.2677 14.0209 16.6176 14.1611 15.9944Z" fill="white"/>
</g>
</svg>
