<svg width="32" height="32" viewBox="0 0 32 32" fill="none" xmlns="http://www.w3.org/2000/svg">
<g id="Component 10" clip-path="url(#clip0_723_30759)">
<path id="Vector" d="M10.0713 0H15.6521V2.17773H10.0713V0Z" fill="url(#paint0_linear_723_30759)"/>
<path id="Vector_2" d="M24.9539 8.3916H16.2007C13.8423 8.3916 11.9229 10.3103 11.9229 12.6694V20.9756C11.9229 21.4058 12.1604 21.7964 12.5425 21.9946C12.71 22.0823 12.8921 22.1252 13.0728 22.1252C13.2739 22.1252 13.4746 22.0723 13.6536 21.9666L16.6702 20.4441H24.9539C27.313 20.4441 29.2317 18.5247 29.2317 16.1663V12.6694C29.2317 10.3103 27.313 8.3916 24.9539 8.3916ZM24.6807 16.8208H20.5774C20.0596 16.8208 19.6394 16.4014 19.6394 15.8831C19.6394 15.3652 20.0596 14.9451 20.5774 14.9451H24.6807C25.1985 14.9451 25.6187 15.3652 25.6187 15.8831C25.6187 16.4014 25.1985 16.8208 24.6807 16.8208ZM24.6807 13.6184H16.4746C15.9563 13.6184 15.5366 13.1982 15.5366 12.6807C15.5366 12.1628 15.9563 11.7427 16.4746 11.7427H24.6807C25.1985 11.7427 25.6187 12.1628 25.6187 12.6807C25.6187 13.1982 25.1985 13.6184 24.6807 13.6184Z" fill="url(#paint1_linear_723_30759)"/>
<path id="Vector_3" d="M12.7534 24.3484C12.4019 24.5154 11.9194 24.5674 11.5356 24.5037C10.6526 24.3149 10.0374 23.5098 10.0374 22.6067V11.6682C10.071 8.94653 12.2834 6.49438 15.8655 6.46533H22.8481V3.60767C22.8481 1.61865 21.23 0 19.2405 0H17.5278V2.25464C17.5278 3.24829 16.7224 4.05396 15.7285 4.05396H9.99463C9.00073 4.05396 8.19507 3.24829 8.19507 2.25464V0H6.48267C4.49316 0 2.875 1.61865 2.875 3.60767V28.3923C2.875 30.3813 4.49316 32 6.48267 32H19.2405C21.23 32 22.8481 30.3813 22.8481 28.3923V22.4482L16.8179 22.3857L12.7534 24.3484ZM14.7019 29.0115H11.0212C10.5029 29.0115 10.0833 28.5918 10.0833 28.0735C10.0833 27.5559 10.5029 27.1357 11.0212 27.1357H14.7019C15.2202 27.1357 15.6396 27.5559 15.6396 28.0735C15.6396 28.5918 15.2202 29.0115 14.7019 29.0115Z" fill="url(#paint2_linear_723_30759)"/>
</g>
<defs>
<linearGradient id="paint0_linear_723_30759" x1="12.8617" y1="0" x2="12.8617" y2="2.17773" gradientUnits="userSpaceOnUse">
<stop stop-color="#F6E848"/>
<stop offset="1" stop-color="#ECC91D"/>
</linearGradient>
<linearGradient id="paint1_linear_723_30759" x1="20.5773" y1="8.3916" x2="20.5773" y2="22.1252" gradientUnits="userSpaceOnUse">
<stop stop-color="#F6E848"/>
<stop offset="1" stop-color="#ECC91D"/>
</linearGradient>
<linearGradient id="paint2_linear_723_30759" x1="12.8616" y1="0" x2="12.8616" y2="32" gradientUnits="userSpaceOnUse">
<stop stop-color="#F6E848"/>
<stop offset="1" stop-color="#ECC91D"/>
</linearGradient>
<clipPath id="clip0_723_30759">
<rect width="32" height="32" fill="white"/>
</clipPath>
</defs>
</svg>
