<svg width="80" height="80" viewBox="0 0 80 80" fill="none" xmlns="http://www.w3.org/2000/svg">
    <path d="M3.164 36.848 1.872 38.14A1.293 1.293 0 0 0 3.7 39.969l1.292-1.292 1.292 1.292a1.293 1.293 0 1 0 1.829-1.829L6.82 36.848l1.292-1.293a1.293 1.293 0 1 0-1.83-1.828l-1.292 1.292L3.7 33.727a1.288 1.288 0 0 0-.914-.38 1.293 1.293 0 0 0-.915 2.208l1.292 1.293h.002zM64.543 7.045l-.923.923a.924.924 0 0 0 1.306 1.306l.923-.923.923.923a.923.923 0 1 0 1.306-1.306l-.923-.923.923-.923a.924.924 0 1 0-1.307-1.306l-.923.923-.923-.923a.92.92 0 0 0-1.306 0 .924.924 0 0 0 0 1.306l.923.923zM11.348 10.348c1.654 0 3 1.346 3 3s-1.346 3-3 3-3-1.346-3-3 1.346-3 3-3zm0 3.946a.947.947 0 0 0 0-1.892.947.947 0 0 0 0 1.892z" fill="#443D30"/>
    <path d="M45.912 45.339a7.614 7.614 0 0 0 1.714 10.258 8.37 8.37 0 0 1-.925-2.283c-1.404-5.808 3.526-11.2 9.45-10.304a7.617 7.617 0 0 0-10.239 2.329z" fill="#fff"/>
    <path d="M49.212 23.094H32.02v1.917h17.192v-1.917zM49.212 27.852H32.02v1.917h17.192v-1.917zM41.804 37.363H32.02v1.918h7.948a16.786 16.786 0 0 1 1.836-1.918zM38.097 42.121H32.02v1.917h5.234c.237-.648.516-1.285.843-1.917zM36.492 46.877H32.02v1.917h4.246c.038-.636.111-1.27.225-1.917zM32.02 53.55h4.638a17.079 17.079 0 0 1-.32-1.917h-4.317v1.917z" fill="#443D30"/>
    <path d="M62.258 42.765c-2.39-3.178-5.888-4.694-9.365-4.693-4.059 0-8.087 2.066-10.282 5.967-1.316 2.337-1.76 4.995-1.352 7.596.931 5.932 6.032 9.919 11.595 9.919 1.455 0 2.942-.273 4.394-.855 7.206-2.89 9.587-11.849 5.01-17.934zM57.056 60.22a11.243 11.243 0 0 1-4.202.818 11.167 11.167 0 0 1-11.086-9.484c-.399-2.542.048-5.054 1.291-7.264 1.98-3.518 5.748-5.704 9.834-5.704 3.545 0 6.809 1.636 8.954 4.487 2.105 2.8 2.767 6.36 1.815 9.766-.946 3.387-3.354 6.077-6.606 7.38zm5.202-17.456c-2.39-3.178-5.888-4.694-9.365-4.693-4.059 0-8.087 2.066-10.282 5.967-1.316 2.337-1.76 4.995-1.352 7.596.931 5.932 6.032 9.919 11.595 9.919 1.455 0 2.942-.273 4.394-.855 7.206-2.89 9.587-11.849 5.01-17.934zM57.056 60.22a11.243 11.243 0 0 1-4.202.818 11.167 11.167 0 0 1-11.086-9.484c-.399-2.542.048-5.054 1.291-7.264 1.98-3.518 5.748-5.704 9.834-5.704 3.545 0 6.809 1.636 8.954 4.487 2.105 2.8 2.767 6.36 1.815 9.766-.946 3.387-3.354 6.077-6.606 7.38zM52.851 35.16c2.518 0 4.962.638 7.125 1.836v-.586a15.199 15.199 0 0 0-7.125-1.765 15.11 15.11 0 0 0-11.248 4.974 15.006 15.006 0 0 0-3.115 5.307 15.184 15.184 0 0 0-.712 6.402 15.13 15.13 0 0 0 1.6 5.453h.582a14.604 14.604 0 0 1-1.67-5.505A14.603 14.603 0 0 1 52.852 35.16zm23.98 33.003-2.825-2.824-7.99-7.99a15.16 15.16 0 0 0 1.791-10.072 15.2 15.2 0 0 0-4.052-8.032 15.212 15.212 0 0 0-5.72-3.695 15.199 15.199 0 0 0-5.184-.905 15.11 15.11 0 0 0-11.248 4.974 15.006 15.006 0 0 0-3.115 5.307 15.184 15.184 0 0 0-.712 6.402 15.13 15.13 0 0 0 2.183 6.483 14.88 14.88 0 0 0 2.903 3.403l.023.02a15.418 15.418 0 0 0 .602.495 15.335 15.335 0 0 0 4.958 2.58 15.12 15.12 0 0 0 5.449.638 14.889 14.889 0 0 0 2.99-.508c1.22-.338 2.4-.834 3.517-1.475l2.375 2.375 8.44 8.44a3.944 3.944 0 0 0 2.807 1.162c1.06 0 2.057-.413 2.808-1.163a3.976 3.976 0 0 0 0-5.615zm-.365 5.251a3.445 3.445 0 0 1-2.443 1.012 3.446 3.446 0 0 1-2.444-1.012l-8.075-8.075-3.022-3.022a14.477 14.477 0 0 1-10.489 1.854 14.912 14.912 0 0 1-7.123-3.642 14.43 14.43 0 0 1-2.912-3.748 14.604 14.604 0 0 1-1.67-5.505A14.603 14.603 0 0 1 52.852 35.16a14.68 14.68 0 0 1 9.407 3.398 14.428 14.428 0 0 1 2.527 2.726c3.302 4.637 3.721 11.004.584 16.146l7.909 7.909 3.188 3.188a3.455 3.455 0 0 1 0 4.887zM52.893 38.072c-4.059 0-8.087 2.066-10.282 5.967-1.316 2.337-1.76 4.995-1.352 7.596.931 5.932 6.032 9.919 11.595 9.919 1.455 0 2.942-.273 4.394-.855 7.206-2.89 9.587-11.849 5.01-17.934-2.39-3.178-5.888-4.694-9.365-4.693zm10.77 14.768c-.947 3.387-3.355 6.077-6.607 7.38a11.243 11.243 0 0 1-4.202.819 11.167 11.167 0 0 1-11.086-9.484c-.399-2.542.048-5.054 1.291-7.264 1.98-3.518 5.748-5.704 9.834-5.704 3.545 0 6.809 1.636 8.954 4.487 2.105 2.8 2.767 6.36 1.815 9.766zm-1.405-10.075c-2.39-3.178-5.888-4.694-9.365-4.693-4.059 0-8.087 2.066-10.282 5.967-1.316 2.337-1.76 4.995-1.352 7.596.931 5.932 6.032 9.919 11.595 9.919 1.455 0 2.942-.273 4.394-.855 7.206-2.89 9.587-11.849 5.01-17.934zM57.056 60.22a11.243 11.243 0 0 1-4.202.818 11.167 11.167 0 0 1-11.086-9.484c-.399-2.542.048-5.054 1.291-7.264 1.98-3.518 5.748-5.704 9.834-5.704 3.545 0 6.809 1.636 8.954 4.487 2.105 2.8 2.767 6.36 1.815 9.766-.946 3.387-3.354 6.077-6.606 7.38zm5.202-17.456c-2.39-3.178-5.888-4.694-9.365-4.693-4.059 0-8.087 2.066-10.282 5.967-1.316 2.337-1.76 4.995-1.352 7.596.931 5.932 6.032 9.919 11.595 9.919 1.455 0 2.942-.273 4.394-.855 7.206-2.89 9.587-11.849 5.01-17.934zM57.056 60.22a11.243 11.243 0 0 1-4.202.818 11.167 11.167 0 0 1-11.086-9.484c-.399-2.542.048-5.054 1.291-7.264 1.98-3.518 5.748-5.704 9.834-5.704 3.545 0 6.809 1.636 8.954 4.487 2.105 2.8 2.767 6.36 1.815 9.766-.946 3.387-3.354 6.077-6.606 7.38z" fill="#fff"/>
    <path d="m76.466 68.528-3.188-3.189-7.909-7.908c3.137-5.142 2.718-11.51-.584-16.147a14.483 14.483 0 0 0-4.809-4.287 14.68 14.68 0 0 0-7.125-1.837c-8.651 0-15.434 7.4-14.562 16.117a14.605 14.605 0 0 0 1.96 6.02 14.437 14.437 0 0 0 3.418 3.918 14.914 14.914 0 0 0 6.326 2.957 14.613 14.613 0 0 0 2.911.294c2.555 0 5.165-.677 7.578-2.149l3.022 3.022 8.075 8.076a3.445 3.445 0 0 0 2.444 1.011 3.455 3.455 0 0 0 2.443-5.899zm-19.218-7.829a11.783 11.783 0 0 1-4.394.855c-5.563 0-10.664-3.987-11.595-9.919-.407-2.6.036-5.258 1.352-7.596 2.195-3.9 6.223-5.966 10.282-5.967 3.477 0 6.976 1.516 9.365 4.694 4.577 6.085 2.197 15.044-5.01 17.934z" fill="url(#efecl6bgka)"/>
    <path d="M46.279 32.607H32.021v1.918h14.258v-1.918z" fill="#443D30"/>
    <path d="M52.83 18.836v-.1H28.587V57.91H40.755l-.101-.154a13.958 13.958 0 0 1-.608-1.023l-.029-.053h-10.2V19.966H51.6v8.276h8.276v8.814l.051.028a14.01 14.01 0 0 1 1.023.623l.156.104V27.012H52.83v-8.176zm1.882-3.989-.029-.029H25.942c-.625 0-1.134.507-1.134 1.13v45.881H44.666l-.257-.181a14.374 14.374 0 0 1-.68-.512 13.485 13.485 0 0 1-.605-.511l-.03-.026H26.039V16.048h28.136l9.481 9.482v14.507l.026.029c.176.196.347.396.511.6l.078-.062-.078.063c.178.22.348.446.512.675l.181.255V25.021l-.03-.03-10.143-10.144z" fill="#443D30" stroke="#443D30" stroke-width=".2"/>
    <path d="M43.89 61.808a16.97 16.97 0 0 0 4.326 2.4m-4.327-2.4.061-.08m-.06.08.06-.08m-.06.08a12.99 12.99 0 0 1-.193-.149m4.519 2.55-4.266-2.48m4.266 2.48H22.428V21.95h2.378m23.41 42.258L24.806 21.95M43.95 61.73a13.895 13.895 0 0 1-.218-.17m-.035.1h.035v-.1m-.035.1h-18.89V21.95m18.89 39.71-.027-.022.062-.079m0 0L24.806 21.95M52.48 64.363l-.014-.005h-.015a14.5 14.5 0 0 1-2.437-.285l-.02.098.02-.098a14.815 14.815 0 0 1-5.604-2.426 14.253 14.253 0 0 1-.68-.511l-.207-.169a13.488 13.488 0 0 1-.399-.343 11.17 11.17 0 0 1-.186-.168l-.028-.027H26.036V20.72H21.198v44.718h33.853l.032-.194-1.157-.392-1.447-.49z" fill="#443D30" stroke="#443D30" stroke-width=".2"/>
    <mask id="doitwvtfub" maskUnits="userSpaceOnUse" x="36.183" y="33.129" width="43" height="43" fill="#000">
        <path fill="#fff" d="M36.183 33.129h43v43h-43z"/>
        <path d="M62.258 42.764c-2.39-3.177-5.888-4.693-9.365-4.693-4.059 0-8.087 2.067-10.282 5.967-1.316 2.338-1.76 4.996-1.352 7.596.93 5.932 6.032 9.919 11.595 9.919 1.455 0 2.942-.273 4.394-.855 7.206-2.889 9.587-11.848 5.01-17.934zm-5.394 16.978c-1.292.518-2.641.78-4.01.78a10.655 10.655 0 0 1-10.577-9.047c-.38-2.427.045-4.824 1.231-6.932 1.89-3.356 5.485-5.441 9.385-5.442 3.382 0 6.495 1.56 8.542 4.282 2.008 2.67 2.64 6.067 1.731 9.318-.902 3.23-3.2 5.797-6.302 7.041zm5.394-16.978c-2.39-3.177-5.888-4.693-9.365-4.693-4.059 0-8.087 2.067-10.282 5.967-1.316 2.338-1.76 4.996-1.352 7.596.93 5.932 6.032 9.919 11.595 9.919 1.455 0 2.942-.273 4.394-.855 7.206-2.889 9.587-11.848 5.01-17.934zm-5.394 16.978c-1.292.518-2.641.78-4.01.78a10.655 10.655 0 0 1-10.577-9.047c-.38-2.427.045-4.824 1.231-6.932 1.89-3.356 5.485-5.441 9.385-5.442 3.382 0 6.495 1.56 8.542 4.282 2.008 2.67 2.64 6.067 1.731 9.318-.902 3.23-3.2 5.797-6.302 7.041zm1.346-24.677a15.713 15.713 0 0 0-5.36-.936 15.9 15.9 0 0 0-3.369.36 15.599 15.599 0 0 0-8.26 4.784 15.605 15.605 0 0 0-3.936 8.696 16.035 16.035 0 0 0-.021 3.41c.19 1.91.706 3.725 1.534 5.401h1.16a14.605 14.605 0 0 1-1.67-5.504 14.603 14.603 0 0 1 14.563-16.117c2.518 0 4.962.638 7.125 1.837v-1.167c-.57-.29-1.16-.545-1.766-.764zm4.048 7.7c-2.39-3.178-5.888-4.694-9.365-4.694-4.059 0-8.087 2.067-10.282 5.967-1.316 2.338-1.76 4.996-1.352 7.596.93 5.932 6.032 9.919 11.595 9.919 1.455 0 2.942-.273 4.394-.855 7.206-2.889 9.587-11.848 5.01-17.934zm-5.394 16.977c-1.292.518-2.641.78-4.01.78a10.655 10.655 0 0 1-10.577-9.047c-.38-2.427.045-4.824 1.231-6.932 1.89-3.356 5.485-5.441 9.385-5.442 3.382 0 6.495 1.56 8.542 4.282 2.008 2.67 2.64 6.067 1.731 9.318-.902 3.23-3.2 5.797-6.302 7.041zm5.394-16.978c-2.39-3.177-5.888-4.693-9.365-4.693-4.059 0-8.087 2.067-10.282 5.967-1.316 2.338-1.76 4.996-1.352 7.596.93 5.932 6.032 9.919 11.595 9.919 1.455 0 2.942-.273 4.394-.855 7.206-2.889 9.587-11.848 5.01-17.934zm-5.394 16.978c-1.292.518-2.641.78-4.01.78a10.655 10.655 0 0 1-10.577-9.047c-.38-2.427.045-4.824 1.231-6.932 1.89-3.356 5.485-5.441 9.385-5.442 3.382 0 6.495 1.56 8.542 4.282 2.008 2.67 2.64 6.067 1.731 9.318-.902 3.23-3.2 5.797-6.302 7.041zm21.58 10.465a4.467 4.467 0 0 0-1.25-2.409l-2.46-2.46-.244-.245-7.835-7.834a15.535 15.535 0 0 0 1.62-4.585c.336-1.812.349-3.657.04-5.484a15.71 15.71 0 0 0-4.045-8.152 14.97 14.97 0 0 0-1.353-1.272 15.75 15.75 0 0 0-4.707-2.7 15.713 15.713 0 0 0-5.36-.937 15.9 15.9 0 0 0-3.369.36 15.599 15.599 0 0 0-8.26 4.784 15.605 15.605 0 0 0-3.936 8.696 16.035 16.035 0 0 0-.021 3.41 15.663 15.663 0 0 0 1.801 5.916 15.344 15.344 0 0 0 3.482 4.327l.124.106a15.816 15.816 0 0 0 4.693 2.755 15.968 15.968 0 0 0 3.333.855 15.61 15.61 0 0 0 4.399 0c.65-.093 1.293-.228 1.926-.403a15.675 15.675 0 0 0 3.29-1.332l1.735 1.735 4.714 4.713.155.156 3.935 3.935a4.46 4.46 0 0 0 3.172 1.313 4.469 4.469 0 0 0 3.172-1.313 4.46 4.46 0 0 0 1.313-3.172c0-.258-.021-.512-.064-.763zm-1.978 3.206a3.445 3.445 0 0 1-2.443 1.012 3.447 3.447 0 0 1-2.444-1.012l-2.176-2.176-1.03-1.03-.155-.156-4.714-4.713-3.022-3.022a14.477 14.477 0 0 1-10.49 1.855 14.915 14.915 0 0 1-7.122-3.642 14.431 14.431 0 0 1-2.913-3.749 14.605 14.605 0 0 1-1.668-5.504A14.603 14.603 0 0 1 52.85 35.159a14.681 14.681 0 0 1 9.407 3.399 14.43 14.43 0 0 1 2.527 2.725c3.302 4.637 3.721 11.005.584 16.146l7.909 7.91 1.212 1.211 1.976 1.976a3.439 3.439 0 0 1 1.002 2.711 3.44 3.44 0 0 1-1.002 2.176zM52.893 38.071c-4.059 0-8.087 2.067-10.282 5.967-1.316 2.338-1.76 4.996-1.352 7.596.93 5.932 6.032 9.919 11.595 9.919 1.455 0 2.942-.273 4.394-.855 7.206-2.889 9.587-11.848 5.01-17.934-2.39-3.177-5.888-4.693-9.365-4.693zm10.273 14.63c-.902 3.23-3.2 5.797-6.302 7.041-1.292.518-2.641.78-4.01.78a10.655 10.655 0 0 1-10.577-9.047c-.38-2.427.045-4.824 1.231-6.932 1.89-3.356 5.485-5.441 9.385-5.442 3.382 0 6.495 1.56 8.542 4.282 2.008 2.67 2.64 6.067 1.731 9.318zM58.035 35.55a15.198 15.198 0 0 0-5.184-.906 15.11 15.11 0 0 0-11.248 4.974 15.005 15.005 0 0 0-3.115 5.308 15.183 15.183 0 0 0-.712 6.401 15.13 15.13 0 0 0 1.6 5.453h.581a14.605 14.605 0 0 1-1.668-5.504A14.603 14.603 0 0 1 52.85 35.159c2.518 0 4.962.638 7.125 1.837v-.587a15.168 15.168 0 0 0-1.941-.86zm4.223 7.214c-2.39-3.177-5.888-4.693-9.365-4.693-4.059 0-8.087 2.067-10.282 5.967-1.316 2.338-1.76 4.996-1.352 7.596.93 5.932 6.032 9.919 11.595 9.919 1.455 0 2.942-.273 4.394-.855 7.206-2.889 9.587-11.848 5.01-17.934zm-5.394 16.978c-1.292.518-2.641.78-4.01.78a10.655 10.655 0 0 1-10.577-9.047c-.38-2.427.045-4.824 1.231-6.932 1.89-3.356 5.485-5.441 9.385-5.442 3.382 0 6.495 1.56 8.542 4.282 2.008 2.67 2.64 6.067 1.731 9.318-.902 3.23-3.2 5.797-6.302 7.041zm5.394-16.978c-2.39-3.177-5.888-4.693-9.365-4.693-4.059 0-8.087 2.067-10.282 5.967-1.316 2.338-1.76 4.996-1.352 7.596.93 5.932 6.032 9.919 11.595 9.919 1.455 0 2.942-.273 4.394-.855 7.206-2.889 9.587-11.848 5.01-17.934zm-5.394 16.978c-1.292.518-2.641.78-4.01.78a10.655 10.655 0 0 1-10.577-9.047c-.38-2.427.045-4.824 1.231-6.932 1.89-3.356 5.485-5.441 9.385-5.442 3.382 0 6.495 1.56 8.542 4.282 2.008 2.67 2.64 6.067 1.731 9.318-.902 3.23-3.2 5.797-6.302 7.041zm1.346-24.677a15.713 15.713 0 0 0-5.36-.936 15.9 15.9 0 0 0-3.369.36 15.599 15.599 0 0 0-8.26 4.784 15.605 15.605 0 0 0-3.936 8.696 16.035 16.035 0 0 0-.021 3.41 15.663 15.663 0 0 0 1.801 5.916h1.184a14.605 14.605 0 0 1-1.96-6.02A14.603 14.603 0 0 1 52.85 35.16c2.518 0 4.962.638 7.125 1.837v-1.167c-.57-.29-1.16-.545-1.766-.764zm4.048 7.7c-2.39-3.178-5.888-4.694-9.365-4.694-4.059 0-8.087 2.067-10.282 5.967-1.316 2.338-1.76 4.996-1.352 7.596.93 5.932 6.032 9.919 11.595 9.919 1.455 0 2.942-.273 4.394-.855 7.206-2.889 9.587-11.848 5.01-17.934zm-5.394 16.977c-1.292.518-2.641.78-4.01.78a10.655 10.655 0 0 1-10.577-9.047c-.38-2.427.045-4.824 1.231-6.932 1.89-3.356 5.485-5.441 9.385-5.442 3.382 0 6.495 1.56 8.542 4.282 2.008 2.67 2.64 6.067 1.731 9.318-.902 3.23-3.2 5.797-6.302 7.041zm5.394-16.978c-2.39-3.177-5.888-4.693-9.365-4.693-4.059 0-8.087 2.067-10.282 5.967-1.316 2.338-1.76 4.996-1.352 7.596.93 5.932 6.032 9.919 11.595 9.919 1.455 0 2.942-.273 4.394-.855 7.206-2.889 9.587-11.848 5.01-17.934zm-5.394 16.978c-1.292.518-2.641.78-4.01.78a10.655 10.655 0 0 1-10.577-9.047c-.38-2.427.045-4.824 1.231-6.932 1.89-3.356 5.485-5.441 9.385-5.442 3.382 0 6.495 1.56 8.542 4.282 2.008 2.67 2.64 6.067 1.731 9.318-.902 3.23-3.2 5.797-6.302 7.041zm5.394-16.978c-2.39-3.177-5.888-4.693-9.365-4.693-4.059 0-8.087 2.067-10.282 5.967-1.316 2.338-1.76 4.996-1.352 7.596.93 5.932 6.032 9.919 11.595 9.919 1.455 0 2.942-.273 4.394-.855 7.206-2.889 9.587-11.848 5.01-17.934zm-5.394 16.978c-1.292.518-2.641.78-4.01.78a10.655 10.655 0 0 1-10.577-9.047c-.38-2.427.045-4.824 1.231-6.932 1.89-3.356 5.485-5.441 9.385-5.442 3.382 0 6.495 1.56 8.542 4.282 2.008 2.67 2.64 6.067 1.731 9.318-.902 3.23-3.2 5.797-6.302 7.041zm5.394-16.978c-2.39-3.177-5.888-4.693-9.365-4.693-4.059 0-8.087 2.067-10.282 5.967-1.316 2.338-1.76 4.996-1.352 7.596.93 5.932 6.032 9.919 11.595 9.919 1.455 0 2.942-.273 4.394-.855 7.206-2.889 9.587-11.848 5.01-17.934zm-5.394 16.978c-1.292.518-2.641.78-4.01.78a10.655 10.655 0 0 1-10.577-9.047c-.38-2.427.045-4.824 1.231-6.932 1.89-3.356 5.485-5.441 9.385-5.442 3.382 0 6.495 1.56 8.542 4.282 2.008 2.67 2.64 6.067 1.731 9.318-.902 3.23-3.2 5.797-6.302 7.041zm3.627-23.047v-.592a15.674 15.674 0 0 0-2.281-1.038 15.713 15.713 0 0 0-5.36-.936 15.9 15.9 0 0 0-3.369.36 15.599 15.599 0 0 0-8.26 4.784 15.605 15.605 0 0 0-3.936 8.696 16.035 16.035 0 0 0-.021 3.41 15.663 15.663 0 0 0 1.801 5.916h.588c.099.174.2.346.306.515h.61a13.84 13.84 0 0 1-.612-1.03 14.605 14.605 0 0 1-1.668-5.504A14.603 14.603 0 0 1 52.85 35.159a14.681 14.681 0 0 1 8.155 2.464v-.615c-.17-.108-.341-.212-.515-.313z"/>
    </mask>
    <path d="M62.258 42.764c-2.39-3.177-5.888-4.693-9.365-4.693-4.059 0-8.087 2.067-10.282 5.967-1.316 2.338-1.76 4.996-1.352 7.596.93 5.932 6.032 9.919 11.595 9.919 1.455 0 2.942-.273 4.394-.855 7.206-2.889 9.587-11.848 5.01-17.934zm-5.394 16.978c-1.292.518-2.641.78-4.01.78a10.655 10.655 0 0 1-10.577-9.047c-.38-2.427.045-4.824 1.231-6.932 1.89-3.356 5.485-5.441 9.385-5.442 3.382 0 6.495 1.56 8.542 4.282 2.008 2.67 2.64 6.067 1.731 9.318-.902 3.23-3.2 5.797-6.302 7.041zm5.394-16.978c-2.39-3.177-5.888-4.693-9.365-4.693-4.059 0-8.087 2.067-10.282 5.967-1.316 2.338-1.76 4.996-1.352 7.596.93 5.932 6.032 9.919 11.595 9.919 1.455 0 2.942-.273 4.394-.855 7.206-2.889 9.587-11.848 5.01-17.934zm-5.394 16.978c-1.292.518-2.641.78-4.01.78a10.655 10.655 0 0 1-10.577-9.047c-.38-2.427.045-4.824 1.231-6.932 1.89-3.356 5.485-5.441 9.385-5.442 3.382 0 6.495 1.56 8.542 4.282 2.008 2.67 2.64 6.067 1.731 9.318-.902 3.23-3.2 5.797-6.302 7.041zm1.346-24.677a15.713 15.713 0 0 0-5.36-.936 15.9 15.9 0 0 0-3.369.36 15.599 15.599 0 0 0-8.26 4.784 15.605 15.605 0 0 0-3.936 8.696 16.035 16.035 0 0 0-.021 3.41c.19 1.91.706 3.725 1.534 5.401h1.16a14.605 14.605 0 0 1-1.67-5.504 14.603 14.603 0 0 1 14.563-16.117c2.518 0 4.962.638 7.125 1.837v-1.167c-.57-.29-1.16-.545-1.766-.764zm4.048 7.7c-2.39-3.178-5.888-4.694-9.365-4.694-4.059 0-8.087 2.067-10.282 5.967-1.316 2.338-1.76 4.996-1.352 7.596.93 5.932 6.032 9.919 11.595 9.919 1.455 0 2.942-.273 4.394-.855 7.206-2.889 9.587-11.848 5.01-17.934zm-5.394 16.977c-1.292.518-2.641.78-4.01.78a10.655 10.655 0 0 1-10.577-9.047c-.38-2.427.045-4.824 1.231-6.932 1.89-3.356 5.485-5.441 9.385-5.442 3.382 0 6.495 1.56 8.542 4.282 2.008 2.67 2.64 6.067 1.731 9.318-.902 3.23-3.2 5.797-6.302 7.041zm5.394-16.978c-2.39-3.177-5.888-4.693-9.365-4.693-4.059 0-8.087 2.067-10.282 5.967-1.316 2.338-1.76 4.996-1.352 7.596.93 5.932 6.032 9.919 11.595 9.919 1.455 0 2.942-.273 4.394-.855 7.206-2.889 9.587-11.848 5.01-17.934zm-5.394 16.978c-1.292.518-2.641.78-4.01.78a10.655 10.655 0 0 1-10.577-9.047c-.38-2.427.045-4.824 1.231-6.932 1.89-3.356 5.485-5.441 9.385-5.442 3.382 0 6.495 1.56 8.542 4.282 2.008 2.67 2.64 6.067 1.731 9.318-.902 3.23-3.2 5.797-6.302 7.041zm21.58 10.465a4.467 4.467 0 0 0-1.25-2.409l-2.46-2.46-.244-.245-7.835-7.834a15.535 15.535 0 0 0 1.62-4.585c.336-1.812.349-3.657.04-5.484a15.71 15.71 0 0 0-4.045-8.152 14.97 14.97 0 0 0-1.353-1.272 15.75 15.75 0 0 0-4.707-2.7 15.713 15.713 0 0 0-5.36-.937 15.9 15.9 0 0 0-3.369.36 15.599 15.599 0 0 0-8.26 4.784 15.605 15.605 0 0 0-3.936 8.696 16.035 16.035 0 0 0-.021 3.41 15.663 15.663 0 0 0 1.801 5.916 15.344 15.344 0 0 0 3.482 4.327l.124.106a15.816 15.816 0 0 0 4.693 2.755 15.968 15.968 0 0 0 3.333.855 15.61 15.61 0 0 0 4.399 0c.65-.093 1.293-.228 1.926-.403a15.675 15.675 0 0 0 3.29-1.332l1.735 1.735 4.714 4.713.155.156 3.935 3.935a4.46 4.46 0 0 0 3.172 1.313 4.469 4.469 0 0 0 3.172-1.313 4.46 4.46 0 0 0 1.313-3.172c0-.258-.021-.512-.064-.763zm-1.978 3.206a3.445 3.445 0 0 1-2.443 1.012 3.447 3.447 0 0 1-2.444-1.012l-2.176-2.176-1.03-1.03-.155-.156-4.714-4.713-3.022-3.022a14.477 14.477 0 0 1-10.49 1.855 14.915 14.915 0 0 1-7.122-3.642 14.431 14.431 0 0 1-2.913-3.749 14.605 14.605 0 0 1-1.668-5.504A14.603 14.603 0 0 1 52.85 35.159a14.681 14.681 0 0 1 9.407 3.399 14.43 14.43 0 0 1 2.527 2.725c3.302 4.637 3.721 11.005.584 16.146l7.909 7.91 1.212 1.211 1.976 1.976a3.439 3.439 0 0 1 1.002 2.711 3.44 3.44 0 0 1-1.002 2.176zM52.893 38.071c-4.059 0-8.087 2.067-10.282 5.967-1.316 2.338-1.76 4.996-1.352 7.596.93 5.932 6.032 9.919 11.595 9.919 1.455 0 2.942-.273 4.394-.855 7.206-2.889 9.587-11.848 5.01-17.934-2.39-3.177-5.888-4.693-9.365-4.693zm10.273 14.63c-.902 3.23-3.2 5.797-6.302 7.041-1.292.518-2.641.78-4.01.78a10.655 10.655 0 0 1-10.577-9.047c-.38-2.427.045-4.824 1.231-6.932 1.89-3.356 5.485-5.441 9.385-5.442 3.382 0 6.495 1.56 8.542 4.282 2.008 2.67 2.64 6.067 1.731 9.318zM58.035 35.55a15.198 15.198 0 0 0-5.184-.906 15.11 15.11 0 0 0-11.248 4.974 15.005 15.005 0 0 0-3.115 5.308 15.183 15.183 0 0 0-.712 6.401 15.13 15.13 0 0 0 1.6 5.453h.581a14.605 14.605 0 0 1-1.668-5.504A14.603 14.603 0 0 1 52.85 35.159c2.518 0 4.962.638 7.125 1.837v-.587a15.168 15.168 0 0 0-1.941-.86zm4.223 7.214c-2.39-3.177-5.888-4.693-9.365-4.693-4.059 0-8.087 2.067-10.282 5.967-1.316 2.338-1.76 4.996-1.352 7.596.93 5.932 6.032 9.919 11.595 9.919 1.455 0 2.942-.273 4.394-.855 7.206-2.889 9.587-11.848 5.01-17.934zm-5.394 16.978c-1.292.518-2.641.78-4.01.78a10.655 10.655 0 0 1-10.577-9.047c-.38-2.427.045-4.824 1.231-6.932 1.89-3.356 5.485-5.441 9.385-5.442 3.382 0 6.495 1.56 8.542 4.282 2.008 2.67 2.64 6.067 1.731 9.318-.902 3.23-3.2 5.797-6.302 7.041zm5.394-16.978c-2.39-3.177-5.888-4.693-9.365-4.693-4.059 0-8.087 2.067-10.282 5.967-1.316 2.338-1.76 4.996-1.352 7.596.93 5.932 6.032 9.919 11.595 9.919 1.455 0 2.942-.273 4.394-.855 7.206-2.889 9.587-11.848 5.01-17.934zm-5.394 16.978c-1.292.518-2.641.78-4.01.78a10.655 10.655 0 0 1-10.577-9.047c-.38-2.427.045-4.824 1.231-6.932 1.89-3.356 5.485-5.441 9.385-5.442 3.382 0 6.495 1.56 8.542 4.282 2.008 2.67 2.64 6.067 1.731 9.318-.902 3.23-3.2 5.797-6.302 7.041zm1.346-24.677a15.713 15.713 0 0 0-5.36-.936 15.9 15.9 0 0 0-3.369.36 15.599 15.599 0 0 0-8.26 4.784 15.605 15.605 0 0 0-3.936 8.696 16.035 16.035 0 0 0-.021 3.41 15.663 15.663 0 0 0 1.801 5.916h1.184a14.605 14.605 0 0 1-1.96-6.02A14.603 14.603 0 0 1 52.85 35.16c2.518 0 4.962.638 7.125 1.837v-1.167c-.57-.29-1.16-.545-1.766-.764zm4.048 7.7c-2.39-3.178-5.888-4.694-9.365-4.694-4.059 0-8.087 2.067-10.282 5.967-1.316 2.338-1.76 4.996-1.352 7.596.93 5.932 6.032 9.919 11.595 9.919 1.455 0 2.942-.273 4.394-.855 7.206-2.889 9.587-11.848 5.01-17.934zm-5.394 16.977c-1.292.518-2.641.78-4.01.78a10.655 10.655 0 0 1-10.577-9.047c-.38-2.427.045-4.824 1.231-6.932 1.89-3.356 5.485-5.441 9.385-5.442 3.382 0 6.495 1.56 8.542 4.282 2.008 2.67 2.64 6.067 1.731 9.318-.902 3.23-3.2 5.797-6.302 7.041zm5.394-16.978c-2.39-3.177-5.888-4.693-9.365-4.693-4.059 0-8.087 2.067-10.282 5.967-1.316 2.338-1.76 4.996-1.352 7.596.93 5.932 6.032 9.919 11.595 9.919 1.455 0 2.942-.273 4.394-.855 7.206-2.889 9.587-11.848 5.01-17.934zm-5.394 16.978c-1.292.518-2.641.78-4.01.78a10.655 10.655 0 0 1-10.577-9.047c-.38-2.427.045-4.824 1.231-6.932 1.89-3.356 5.485-5.441 9.385-5.442 3.382 0 6.495 1.56 8.542 4.282 2.008 2.67 2.64 6.067 1.731 9.318-.902 3.23-3.2 5.797-6.302 7.041zm5.394-16.978c-2.39-3.177-5.888-4.693-9.365-4.693-4.059 0-8.087 2.067-10.282 5.967-1.316 2.338-1.76 4.996-1.352 7.596.93 5.932 6.032 9.919 11.595 9.919 1.455 0 2.942-.273 4.394-.855 7.206-2.889 9.587-11.848 5.01-17.934zm-5.394 16.978c-1.292.518-2.641.78-4.01.78a10.655 10.655 0 0 1-10.577-9.047c-.38-2.427.045-4.824 1.231-6.932 1.89-3.356 5.485-5.441 9.385-5.442 3.382 0 6.495 1.56 8.542 4.282 2.008 2.67 2.64 6.067 1.731 9.318-.902 3.23-3.2 5.797-6.302 7.041zm5.394-16.978c-2.39-3.177-5.888-4.693-9.365-4.693-4.059 0-8.087 2.067-10.282 5.967-1.316 2.338-1.76 4.996-1.352 7.596.93 5.932 6.032 9.919 11.595 9.919 1.455 0 2.942-.273 4.394-.855 7.206-2.889 9.587-11.848 5.01-17.934zm-5.394 16.978c-1.292.518-2.641.78-4.01.78a10.655 10.655 0 0 1-10.577-9.047c-.38-2.427.045-4.824 1.231-6.932 1.89-3.356 5.485-5.441 9.385-5.442 3.382 0 6.495 1.56 8.542 4.282 2.008 2.67 2.64 6.067 1.731 9.318-.902 3.23-3.2 5.797-6.302 7.041zm3.627-23.047v-.592a15.674 15.674 0 0 0-2.281-1.038 15.713 15.713 0 0 0-5.36-.936 15.9 15.9 0 0 0-3.369.36 15.599 15.599 0 0 0-8.26 4.784 15.605 15.605 0 0 0-3.936 8.696 16.035 16.035 0 0 0-.021 3.41 15.663 15.663 0 0 0 1.801 5.916h.588c.099.174.2.346.306.515h.61a13.84 13.84 0 0 1-.612-1.03 14.605 14.605 0 0 1-1.668-5.504A14.603 14.603 0 0 1 52.85 35.159a14.681 14.681 0 0 1 8.155 2.464v-.615c-.17-.108-.341-.212-.515-.313z" fill="#443D30"/>
    <path d="m62.258 42.764.08-.06-.08.06zm-9.365-4.693v-.1.1zM42.61 44.038l.087.049-.087-.049zm-1.352 7.596-.099.016.1-.016zm15.989 9.064.037.093-.037-.093zm-.384-.956-.037-.093.037.093zm-14.587-8.267.099-.016-.099.016zm1.231-6.932.087.05-.087-.05zm9.385-5.442v-.1.1zm8.542 4.282-.08.06.08-.06zm1.731 9.318.097.027-.097-.027zM58.21 35.065l.034-.094-.034.094zm-8.729-.577-.02-.097.02.097zm-3.112 1.03.041.09-.04-.09zm-2.778 1.62-.059-.081.06.08zm-2.37 2.135.074.067-.074-.067zm-1.884 2.564-.087-.051.087.05zM38 44.76l-.094-.032.094.032zm-.715 3.208.1.011-.1-.011zm-.021 3.41-.1.01.1-.01zm1.534 5.401.09-.044-.09.044zm1.16 0 .087-.047-.088.047zm-1.67-5.504.1-.01-.1.01zm21.688-14.28-.049.087.049-.087zM38.994 57.163l.089-.046-.089.046zm1.255.132.086-.05-.086.05zm20.242-20-.052.085.052-.085zm1.847 5.41c-2.41-3.205-5.939-4.734-9.445-4.734v.2c3.447 0 6.916 1.503 9.285 4.653l.16-.12zm-9.445-4.734c-4.092 0-8.156 2.084-10.37 6.018l.175.098c2.176-3.867 6.17-5.915 10.195-5.916v-.2zm-10.37 6.018c-1.327 2.358-1.774 5.039-1.363 7.66l.198-.03c-.404-2.58.035-5.215 1.34-7.532l-.175-.098zm-1.363 7.66c.94 5.983 6.084 10.004 11.694 10.004v-.2c-5.517 0-10.573-3.953-11.496-9.834l-.197.03zm11.694 10.004c1.467 0 2.967-.275 4.43-.862l-.074-.185c-1.44.576-2.914.847-4.356.847v.2zm4.43-.862c7.27-2.914 9.67-11.95 5.054-18.087l-.16.12c4.538 6.034 2.177 14.917-4.968 17.782l.075.185zm-.457-1.142c-1.28.514-2.617.774-3.973.774v.2c1.382 0 2.743-.265 4.047-.788l-.074-.186zm-3.973.774c-5.257 0-9.663-3.77-10.478-8.964l-.198.031a10.755 10.755 0 0 0 10.676 9.133v-.2zm-10.478-8.964c-.378-2.405.044-4.779 1.22-6.867l-.175-.098c-1.197 2.128-1.627 4.547-1.243 6.996l.198-.03zm1.22-6.867c1.87-3.324 5.433-5.39 9.297-5.39v-.2c-3.936 0-7.565 2.104-9.472 5.492l.174.098zm9.297-5.39c3.35 0 6.434 1.545 8.462 4.242l.16-.12C59.45 40.576 56.307 39 52.893 39v.2zm8.462 4.242c1.99 2.645 2.614 6.008 1.715 9.23l.193.054c.916-3.28.28-6.709-1.748-9.405l-.16.12zm1.715 9.23c-.894 3.201-3.17 5.743-6.243 6.975l.074.186c3.132-1.255 5.45-3.846 6.362-7.107l-.193-.054zM58.244 34.97a15.814 15.814 0 0 0-5.393-.942v.2c1.826 0 3.617.313 5.325.93l.068-.188zm-5.393-.942c-1.145 0-2.285.121-3.39.362l.042.195a15.805 15.805 0 0 1 3.348-.357v-.2zm-3.39.362c-1.077.234-2.131.582-3.133 1.035l.082.182c.99-.447 2.03-.791 3.093-1.022l-.043-.195zm-3.133 1.035a15.73 15.73 0 0 0-2.796 1.63l.118.162c.861-.63 1.79-1.17 2.76-1.61l-.082-.182zm-2.796 1.63a15.811 15.811 0 0 0-2.385 2.15l.148.134a15.606 15.606 0 0 1 2.355-2.122l-.118-.161zm-2.385 2.15a15.778 15.778 0 0 0-1.897 2.58l.173.101a15.588 15.588 0 0 1 1.872-2.547l-.148-.134zm-1.897 2.58c-.548.931-1 1.921-1.344 2.943l.19.064c.34-1.009.786-1.986 1.327-2.906l-.173-.101zm-1.344 2.943a15.714 15.714 0 0 0-.72 3.229l.199.022c.124-1.084.363-2.156.71-3.187l-.19-.064zm-.72 3.229a16.137 16.137 0 0 0-.022 3.43l.2-.02a15.94 15.94 0 0 1 .02-3.388l-.198-.022zm-.022 3.43a15.764 15.764 0 0 0 1.545 5.437l.18-.089a15.565 15.565 0 0 1-1.526-5.368l-.199.02zm2.881 5.345a14.505 14.505 0 0 1-1.657-5.467l-.199.02a14.705 14.705 0 0 0 1.68 5.542l.176-.095zm-1.657-5.467a14.503 14.503 0 0 1 14.463-16.007v-.2c-8.71 0-15.54 7.45-14.662 16.227l.2-.02zm14.463-16.007c2.501 0 4.928.634 7.076 1.824l.097-.175a14.781 14.781 0 0 0-7.173-1.849v.2zm7.225 1.737v-1.167h-.2v1.167h.2zm-.055-1.256a15.768 15.768 0 0 0-1.777-.769l-.068.188c.602.218 1.188.471 1.755.76l.09-.18zm.518.275a15.028 15.028 0 0 0-.518-.275l-.09.178c.172.088.343.178.511.272l.097-.175zm-21.83 20.81c.064.13.13.257.197.385l.177-.093a15.304 15.304 0 0 1-.195-.38l-.18.088zm.197.385c.023.045.047.09.072.133l.175-.096a9.594 9.594 0 0 1-.07-.13l-.177.093zm1.748.546c-.11-.168-.216-.338-.32-.512l-.171.102c.104.176.212.349.323.52l.168-.11zm-.32-.512c-.099-.168-.195-.338-.289-.511l-.176.095c.095.175.193.348.294.518l.172-.102zm19.593-20.16c.173.094.343.193.512.296l.104-.17a13.982 13.982 0 0 0-.519-.302l-.097.175zm.512.296c.172.105.343.214.511.326l.111-.166c-.17-.114-.343-.224-.518-.33l-.104.17zm18.005 32.827.197-.034-.197.034zm-.264-.924.185-.076-.185.076zm-.985-1.485.141-.141-.141.141zm-2.46-2.46-.142.142.141-.142zm-.245-.245.141-.141-.141.141zm-7.835-7.834-.176-.096-.07.132.105.105.141-.141zm1.62-4.585.197.036-.197-.036zm.04-5.484.198-.033-.198.033zm-3.53-7.578-.152.13.152-.13zm-.515-.574-.146.137.146-.137zm-.515-.521-.139.144.14-.144zm-.838-.751.128-.154-.128.154zm-1.911-1.364-.104.17.104-.17zm-.515-.3.097-.174-.297-.165v.34h.2zM39.065 57.296v-.2h-.335l.16.295.175-.095zm.292.515.172-.102-.172.102zm2.048 2.719.146-.137-.146.137zm.163.17.143-.14-.143.14zm.347.345.139-.144-.14.144zm.178.17.137-.147-.137.146zm.381.345.133-.15h-.001l-.132.15zm.073.064.131-.152-.13.152zm.124.105.13-.152H42.8l-.129.152zm4.247 2.58.077-.185-.077.185zm.446.175-.07.187.07-.187zm1.004.34.058-.191-.058.191zm2.33.515.027-.198-.028.198zm4.398 0-.028-.198.028.198zm1.926-.403.053.193-.053-.193zm3.29-1.332.141-.142-.105-.105-.132.07.096.177zm1.735 1.735-.141.142.141-.142zm4.714 4.713-.142.142.142-.142zm.155.156.142-.141-.142.141zm3.935 3.935-.141.141.14-.141zm1.484.985-.075.185.075-.185zm3.375 0-.075-.185.075.185zm2.47-2.47.185.075-.185-.075zm.32-1.42-.2-.012.2.012zm-2.034 2.176.141.142-.141-.142zm-4.887 0-.141.142.141-.142zm-2.176-2.176-.141.142.141-.142zm-1.03-1.03.142-.141-.142.141zm-.155-.156.141-.141-.141.141zm-4.714-4.713.142-.141-.142.141zm-3.022-3.022.142-.141-.112-.112-.134.082.104.171zm-8.035 2.141.007-.2-.007.2zm-2.454-.286.04-.197-.04.197zm-5.642-2.443.116-.163-.116.163zm-.684-.515.125-.156h-.001l-.124.156zm-.209-.17.128-.153-.128.154zm-.401-.345.133-.149-.133.15zm-.188-.17.136-.146-.136.147zm-2.3-2.718.168-.109-.059-.09h-.108v.2zm20.437-20.187h-.2v.107l.089.06.11-.167zm1.252.935-.128.153.128-.153zm1.497 1.44.149-.134-.149.134zm.515.605-.156.125.156-.125zm.515.68.163-.116-.163.116zm.584 16.146-.17-.104-.083.134.112.112.141-.142zm7.909 7.91.141-.142-.141.141zm1.212 1.211-.142.141.142-.141zm1.976 1.976-.141.142.141-.142zm.927 1.681-.195.044.195-.044zm.075 1.03-.2-.015.2.015zM58.034 35.55l.069-.188-.069.188zm-11.453.436-.082-.182.082.182zm-4.978 3.632.148.135-.148-.135zm-3.115 5.308-.19-.064.19.064zm-.712 6.401.2-.02-.2.02zm1.6 5.453-.178.092.055.108h.122v-.2zm20.6-20.37h.2v-.121l-.107-.056-.093.176zm.515.285h-.2v.115l.1.058.1-.173zm-20.838 20.6.175-.098-.058-.102h-.117v.2zm.306.515-.17.106.058.094h.112v-.2zm21.047-20.802h.2v-.11l-.093-.059-.107.169zM38.798 56.98h1.16v-.4h-1.16v.4zm39.843 13.193a4.666 4.666 0 0 0-.276-.966l-.37.15c.116.287.2.582.252.884l.394-.068zm-.276-.966a4.66 4.66 0 0 0-1.029-1.55l-.283.282c.41.41.725.887.942 1.419l.37-.15zm-1.03-1.55-2.46-2.46-.282.282 2.46 2.46.283-.282zm-2.46-2.46-.244-.245-.283.283.245.245.283-.283zm-.244-.245-4.365-4.365-3.47-3.47-.282.283 3.469 3.47 4.365 4.365.283-.283zm-7.8-7.598a15.73 15.73 0 0 0 1.641-4.644l-.393-.073a15.333 15.333 0 0 1-1.6 4.526l.352.19zm1.641-4.644c.34-1.835.353-3.703.04-5.553l-.394.067a15.485 15.485 0 0 1-.04 5.413l.394.073zm.04-5.553a15.91 15.91 0 0 0-3.575-7.675l-.304.26a15.51 15.51 0 0 1 3.485 7.482l.395-.067zm-3.575-7.675a15.17 15.17 0 0 0-.522-.581l-.29.275c.174.184.344.373.508.566l.304-.26zm-.521-.58c-.17-.18-.344-.357-.522-.529l-.278.288c.174.168.344.339.508.514l.292-.274zm-.522-.529a15.46 15.46 0 0 0-.849-.76l-.256.307c.286.237.561.484.827.74l.278-.287zm-.849-.76c-.613-.511-1.26-.973-1.935-1.382l-.208.342c.659.4 1.29.849 1.887 1.347l.256-.308zM61.11 36.23a14.804 14.804 0 0 0-.522-.303l-.194.35c.171.095.34.193.508.295l.208-.342zM38.89 57.39c.094.175.193.35.295.521l.344-.203c-.1-.168-.195-.337-.288-.509l-.352.19zm.295.521a15.544 15.544 0 0 0 2.075 2.754l.29-.274a15.154 15.154 0 0 1-2.021-2.684l-.344.204zm2.074 2.754.166.172.286-.28a9.95 9.95 0 0 1-.16-.166l-.292.273zm.165.172c.115.118.232.235.352.35l.277-.288c-.116-.112-.23-.226-.342-.341l-.287.279zm.351.35.182.172.272-.293c-.059-.055-.117-.11-.175-.167l-.279.287zm.181.171c.127.119.255.236.387.35l.263-.3a14.28 14.28 0 0 1-.376-.342l-.274.292zm.386.35.075.065.261-.303-.071-.062-.265.3zm.075.065.126.108.257-.307-.122-.104-.261.303zm.125.107a16.013 16.013 0 0 0 4.3 2.612l.152-.37a15.609 15.609 0 0 1-4.193-2.547l-.26.305zm4.3 2.612c.15.062.3.12.451.177l.141-.374a15.189 15.189 0 0 1-.44-.173l-.152.37zm.451.177c.337.127.676.242 1.017.345l.116-.383a15.76 15.76 0 0 1-.992-.336l-.14.374zm1.017.344c.776.235 1.563.409 2.36.522l.055-.396c-.775-.11-1.543-.28-2.299-.508l-.116.382zm2.359.522c.739.106 1.485.159 2.235.159v-.4c-.731 0-1.458-.052-2.179-.155l-.056.396zm2.235.159c.75 0 1.486-.053 2.22-.159l-.056-.396c-.716.103-1.433.155-2.164.155v.4zm2.22-.159c.658-.094 1.31-.23 1.951-.408l-.107-.386c-.624.173-1.26.306-1.9.398l.056.396zm1.951-.408a15.872 15.872 0 0 0 3.332-1.35l-.19-.351a15.471 15.471 0 0 1-3.249 1.315l.107.386zm3.095-1.384 1.736 1.736.283-.283-1.736-1.736-.283.283zm1.736 1.736 4.713 4.713.283-.283-4.713-4.713-.283.282zm4.713 4.713.156.156.283-.283-.156-.156-.283.283zm.156.156 3.934 3.934.283-.283-3.934-3.934-.283.282zm3.934 3.934a4.66 4.66 0 0 0 1.551 1.03l.15-.371A4.26 4.26 0 0 1 70.993 74l-.282.283zm1.551 1.03a4.67 4.67 0 0 0 1.763.342v-.4a4.271 4.271 0 0 1-1.612-.313l-.15.37zm1.763.342c.608 0 1.2-.115 1.762-.343l-.15-.37a4.271 4.271 0 0 1-1.612.313v.4zm1.762-.343a4.657 4.657 0 0 0 1.551-1.029L77.053 74c-.409.41-.886.726-1.418.942l.15.37zm1.551-1.029a4.66 4.66 0 0 0 1.03-1.55l-.371-.151A4.26 4.26 0 0 1 77.053 74l.283.283zm1.03-1.55a4.66 4.66 0 0 0 .334-1.484l-.4-.024c-.026.467-.13.922-.305 1.357l.37.15zm.334-1.484c.006-.093.008-.186.008-.28h-.4c0 .087-.002.172-.007.256l.4.024zm.008-.28c0-.268-.022-.534-.067-.796l-.394.068c.04.24.061.483.061.729h.4zm-2.383 2.303a3.245 3.245 0 0 1-2.302.953v.4c.935 0 1.87-.357 2.584-1.07l-.282-.283zm-2.302.953a3.246 3.246 0 0 1-2.302-.953l-.283.283a3.646 3.646 0 0 0 2.585 1.07v-.4zm-2.302-.953-2.177-2.176-.282.282 2.176 2.177.283-.283zm-2.177-2.176-1.03-1.03-.282.282 1.03 1.03.282-.282zm-1.03-1.03-.077-.078-.078-.078-.283.283.078.078.078.078.283-.283zm-.155-.156-4.713-4.713-.283.282c1.458 1.46 3.213 3.213 4.713 4.714l.283-.283zm-4.713-4.713-3.022-3.022-.283.283 3.022 3.022.283-.283zm-3.268-3.052a14.276 14.276 0 0 1-7.474 2.12v.4c2.591 0 5.237-.686 7.682-2.178l-.208-.342zm-7.474 2.12c-.15 0-.3-.003-.45-.008l-.014.4c.155.005.31.008.464.008v-.4zm-.45-.008a14.408 14.408 0 0 1-2.421-.283l-.08.393a14.81 14.81 0 0 0 2.488.29l.012-.4zm-2.421-.283a14.716 14.716 0 0 1-5.566-2.409l-.232.327a15.115 15.115 0 0 0 5.718 2.474l.08-.392zm-5.567-2.409c-.23-.162-.454-.332-.674-.508l-.25.313c.226.18.457.355.693.522l.231-.327zm-.675-.508c-.069-.055-.137-.11-.205-.167l-.256.308c.07.058.14.115.212.172l.249-.313zm-.205-.167c-.134-.111-.266-.224-.396-.34l-.267.297c.134.12.27.237.407.35l.256-.307zm-.397-.342-.184-.166-.271.294.19.172.265-.3zm-.184-.166a14.233 14.233 0 0 1-2.268-2.68l-.335.218a14.635 14.635 0 0 0 2.332 2.756l.271-.294zm17.89-22.592c.426.283.838.591 1.235.921l.256-.307c-.408-.34-.832-.656-1.27-.947l-.221.333zm1.235.921c.531.442 1.023.917 1.476 1.42l.298-.267a14.636 14.636 0 0 0-1.518-1.46l-.256.307zm1.476 1.42c.176.195.345.394.508.597l.312-.25a14.514 14.514 0 0 0-.522-.614l-.298.268zm.508.597c.177.22.346.443.508.671l.326-.232a14.747 14.747 0 0 0-.522-.69l-.312.252zm.508.671c3.257 4.575 3.67 10.855.576 15.926l.342.208c3.18-5.212 2.755-11.666-.592-16.366l-.326.232zm.606 16.172 7.908 7.909.283-.283-7.909-7.91-.282.284zm7.908 7.909 1.212 1.211.283-.282-1.212-1.212-.283.282zm1.212 1.211 1.977 1.977.282-.283-1.976-1.976-.283.282zm1.977 1.977c.451.452.743 1.003.873 1.583l.39-.088a3.639 3.639 0 0 0-.98-1.778l-.283.283zm.873 1.583c.072.319.096.646.07.97l.4.032a3.668 3.668 0 0 0-.08-1.09l-.39.088zm.07.97a3.24 3.24 0 0 1-.943 2.05l.282.284a3.64 3.64 0 0 0 1.06-2.303l-.399-.03zm-19.166-35.86a15.399 15.399 0 0 0-5.251-.917v.4c1.754 0 3.475.3 5.116.894l.136-.377zm-5.251-.917a15.31 15.31 0 0 0-6.352 1.36l.165.365a14.91 14.91 0 0 1 6.187-1.325v-.4zm-6.352 1.36a15.23 15.23 0 0 0-5.044 3.68l.296.269a14.83 14.83 0 0 1 4.913-3.584l-.165-.365zm-5.044 3.68a15.206 15.206 0 0 0-3.156 5.378l.379.128a14.806 14.806 0 0 1 3.073-5.237l-.296-.269zm-3.156 5.378a15.381 15.381 0 0 0-.722 6.485l.398-.04c-.216-2.166.02-4.291.703-6.317l-.38-.128zm-.722 6.485a15.33 15.33 0 0 0 1.62 5.525l.356-.183a14.93 14.93 0 0 1-1.578-5.382l-.398.04zm1.798 5.633h.582v-.4h-.582v.4zm20.8-19.984v-.587h-.4v.587h.4zm-.106-.764a15.382 15.382 0 0 0-1.966-.87l-.136.376c.66.238 1.299.522 1.915.848l.187-.353zM39.065 57.496h1.184v-.4h-1.184v.4zm21.626-20.8v-.592h-.4v.592h.4zm-21.626 20.8h.588v-.4h-.588v.4zm.414-.101c.1.176.203.35.31.522l.34-.21a14.583 14.583 0 0 1-.301-.509l-.349.197zm.48.616h.61v-.4h-.61v.4zm21.247-20.387v-.615h-.4v.615h.4zm-.093-.784c-.172-.11-.346-.215-.522-.317l-.2.346c.17.1.34.202.508.309l.214-.338z" fill="#443D30" mask="url(#doitwvtfub)"/>
    <defs>
        <linearGradient id="efecl6bgka" x1="57.846" y1="35.16" x2="57.846" y2="74.427" gradientUnits="userSpaceOnUse">
            <stop stop-color="#F6E848"/>
            <stop offset="1" stop-color="#ECC91D"/>
        </linearGradient>
    </defs>
</svg>
